<?xml version="1.0" standalone="no"?>
<!DOCTYPE svg PUBLIC "-//W3C//DTD SVG 20010904//EN"
 "http://www.w3.org/TR/2001/REC-SVG-20010904/DTD/svg10.dtd">
<svg version="1.0" xmlns="http://www.w3.org/2000/svg"
 width="537.000000pt" height="579.000000pt" viewBox="0 0 537.000000 579.000000"
 preserveAspectRatio="xMidYMid meet">

<g transform="translate(0.000000,579.000000) scale(0.100000,-0.100000)"
fill="#000000" stroke="none">
<path d="M2728 5289 c-21 -10 -49 -36 -63 -56 l-25 -38 0 -933 c0 -670 3 -939
11 -955 23 -44 64 -78 113 -92 42 -13 173 -15 845 -15 827 0 846 1 905 43 55
39 66 82 66 278 0 165 -1 179 -23 219 -16 30 -37 51 -67 67 l-43 23 -521 0
c-586 0 -574 -1 -632 76 l-29 37 -5 631 -5 631 -23 33 c-46 64 -79 72 -284 72
-162 -1 -187 -3 -220 -21z"/>
<path d="M1683 4579 c-18 -11 -43 -37 -55 -57 l-23 -37 -5 -547 c-5 -532 -6
-547 -26 -574 -11 -15 -33 -37 -48 -48 -27 -21 -41 -21 -654 -26 -675 -5 -656
-4 -704 -57 -40 -44 -48 -86 -48 -263 0 -182 8 -218 58 -263 51 -46 45 -46
992 -47 620 0 907 3 935 11 51 14 100 65 114 117 8 29 11 285 9 869 -3 927 2
865 -75 918 -37 25 -40 25 -238 25 -185 0 -202 -2 -232 -21z"/>
<path d="M3275 2816 c-38 -17 -60 -41 -80 -89 -13 -32 -15 -141 -15 -859 0
-528 4 -836 10 -860 13 -44 65 -93 117 -108 24 -8 101 -11 208 -8 157 3 173 5
207 26 20 13 46 38 57 56 20 32 21 47 21 542 1 280 5 529 9 553 11 57 37 91
91 119 l44 22 604 0 c580 0 604 1 641 20 89 45 104 92 99 316 -3 165 -4 172
-30 211 -51 78 16 73 -1025 73 -748 -1 -934 -3 -958 -14z"/>
<path d="M952 2242 c-36 -11 -93 -62 -108 -98 -20 -47 -20 -371 0 -417 19 -44
64 -83 111 -96 26 -7 215 -11 553 -11 360 0 520 -3 535 -11 33 -17 78 -61 91
-89 8 -18 12 -210 16 -651 l5 -625 29 -35 c49 -59 65 -64 240 -67 201 -5 237
1 283 41 66 58 63 5 63 1011 0 624 -3 924 -11 943 -15 40 -48 73 -94 94 -38
18 -83 19 -865 18 -454 -1 -835 -4 -848 -7z"/>
</g>
</svg>
