<?xml version="1.0" standalone="no"?>
<!DOCTYPE svg PUBLIC "-//W3C//DTD SVG 20010904//EN"
 "http://www.w3.org/TR/2001/REC-SVG-20010904/DTD/svg10.dtd">
<svg version="1.0" xmlns="http://www.w3.org/2000/svg"
 width="773.000000pt" height="155.000000pt" viewBox="0 0 773.000000 155.000000"
 preserveAspectRatio="xMidYMid meet">

<g transform="translate(0.000000,155.000000) scale(0.100000,-0.100000)"
fill="#000000" stroke="none">
<path d="M2200 795 l0 -695 114 0 114 0 6 38 c14 77 14 76 56 38 131 -118 347
-139 512 -49 97 53 187 172 226 297 35 116 16 290 -45 410 -127 250 -480 325
-678 144 l-55 -50 0 281 0 281 -125 0 -125 0 0 -695z m652 28 c93 -51 145
-158 136 -277 -13 -162 -139 -268 -301 -253 -185 17 -288 226 -206 417 58 135
232 188 371 113z"/>
<path d="M30 775 l0 -675 425 0 425 0 0 95 0 95 -300 0 -300 0 0 580 0 580
-125 0 -125 0 0 -675z"/>
<path d="M4835 1426 c-65 -21 -101 -43 -138 -87 -44 -51 -66 -112 -74 -206
l-6 -73 -48 0 c-26 0 -50 -4 -53 -9 -7 -11 27 -21 72 -21 l32 0 0 -470 0 -470
80 0 80 0 0 465 c0 256 3 465 8 465 4 0 64 -7 134 -15 112 -13 160 -21 246
-40 21 -5 22 -2 22 45 l0 50 -206 0 -206 0 6 88 c14 178 59 259 149 269 41 5
58 0 120 -30 40 -20 102 -61 139 -91 37 -31 70 -56 73 -56 3 0 5 27 5 61 l0
60 -52 24 c-29 13 -80 31 -113 40 -71 18 -214 19 -270 1z"/>
<path d="M1425 1069 c-73 -12 -129 -34 -189 -74 -81 -53 -134 -134 -151 -227
l-7 -38 121 0 121 0 19 38 c39 76 96 105 196 100 56 -2 80 -9 109 -28 44 -30
79 -96 74 -142 l-3 -33 -165 -1 c-218 -1 -298 -18 -387 -83 -65 -47 -96 -108
-101 -201 -4 -67 -1 -85 20 -131 14 -30 38 -67 54 -83 88 -87 265 -120 409
-75 55 17 78 31 127 78 32 32 60 55 62 52 2 -3 7 -32 11 -63 l7 -58 109 0 109
0 0 328 c0 353 -5 393 -55 471 -90 141 -278 206 -490 170z m281 -591 c-18 -90
-85 -176 -153 -196 -123 -37 -228 11 -228 104 0 89 73 122 269 123 l119 1 -7
-32z"/>
<path d="M3817 1070 c-122 -21 -257 -119 -315 -228 -55 -105 -67 -157 -66
-277 1 -162 42 -263 146 -362 247 -233 679 -143 799 167 99 258 -8 557 -237
661 -97 44 -213 58 -327 39z m199 -229 c53 -24 111 -93 129 -155 21 -71 19
-174 -5 -239 -63 -169 -264 -210 -382 -79 -91 101 -92 306 -1 411 45 54 102
81 168 81 28 0 68 -9 91 -19z"/>
<path d="M5485 1065 c-126 -23 -205 -81 -205 -152 0 -85 89 -158 247 -202 63
-17 66 -19 38 -26 -71 -16 -183 -60 -222 -86 -56 -39 -88 -83 -107 -148 -21
-72 -20 -109 4 -174 78 -208 453 -265 645 -96 l35 31 0 -61 0 -61 80 0 80 0 0
355 c0 402 -3 420 -81 509 -94 107 -297 151 -514 111z m206 -19 c120 -28 197
-99 220 -202 12 -53 12 -56 -12 -80 -60 -59 -220 -55 -354 11 -198 96 -222
229 -48 265 32 7 63 14 68 15 23 7 74 4 126 -9z m229 -540 l0 -224 -33 -48
c-25 -36 -51 -58 -98 -82 -61 -32 -68 -34 -149 -30 -102 5 -149 26 -208 93
-53 60 -70 129 -54 216 26 141 116 206 336 244 54 9 120 25 145 35 25 10 49
18 54 19 4 1 7 -100 7 -223z"/>
<path d="M6525 1063 c-28 -10 -65 -29 -83 -41 -36 -26 -87 -96 -105 -145 -11
-29 -12 -23 -17 73 l-5 105 -82 3 -83 3 0 -486 0 -486 83 3 82 3 5 340 c6 360
6 359 59 463 51 100 129 152 226 152 103 0 163 -51 208 -178 20 -53 21 -84 25
-420 l3 -362 74 0 73 0 5 318 c3 265 7 328 22 382 47 170 138 260 264 260 86
0 142 -35 183 -115 48 -92 51 -121 55 -492 l5 -353 74 0 74 0 0 303 c0 327 -8
397 -55 492 -38 79 -80 121 -153 157 -60 30 -75 33 -157 33 -107 0 -162 -22
-220 -87 -38 -42 -95 -150 -95 -180 0 -10 -4 -18 -10 -18 -5 0 -10 6 -10 14 0
7 -16 45 -35 84 -62 123 -146 179 -282 188 -60 4 -90 0 -128 -13z"/>
</g>
</svg>
